<svg width="113" height="65" viewBox="0 0 113 65" fill="none" xmlns="http://www.w3.org/2000/svg">
<path fill-rule="evenodd" clip-rule="evenodd" d="M61.7768 12.0197C61.8967 12.1901 61.9998 12.3737 62.0839 12.5686C67.0438 13.9067 70.6952 18.3349 70.6952 23.5771C70.6952 29.8757 65.4243 35 58.9455 35C55.563 35 52.5104 33.6028 50.3646 31.3715H42.2193C40.4662 31.3715 39.04 29.9849 39.04 28.2806C39.04 27.3018 39.5109 26.4283 40.2436 25.8616C39.5109 25.2949 39.04 24.4215 39.04 23.4426C39.04 22.4638 39.5109 21.5904 40.2436 21.0237C39.5109 20.457 39.04 19.5835 39.04 18.6047C39.04 17.6259 39.5109 16.7525 40.2436 16.1857C39.5109 15.619 39.04 14.7456 39.04 13.7668C39.04 12.0625 40.4662 10.6759 42.2193 10.6759H44.0218C43.6699 10.1785 43.4634 9.57679 43.4634 8.92884C43.4634 8.28089 43.67 7.67917 44.0218 7.18181H38.487C36.734 7.18181 35.3077 5.7952 35.3077 4.0909C35.3077 2.38661 36.734 1 38.487 1H55.4205C57.1735 1 58.5998 2.38661 58.5998 4.0909C58.5998 4.73885 58.3932 5.34057 58.0413 5.83794H63.5762C65.3292 5.83794 66.7555 7.22454 66.7555 8.92884C66.7555 10.6331 65.3292 12.0197 63.5762 12.0197H61.7768ZM65.3732 8.92884C65.3732 7.96555 64.5671 7.18181 63.5762 7.18181H46.6427C45.6518 7.18181 44.8457 7.96555 44.8457 8.92884C44.8457 9.89213 45.6518 10.6759 46.6427 10.6759H59.1527H63.5762C64.5671 10.6759 65.3732 9.89213 65.3732 8.92884ZM36.69 4.0909C36.69 5.05419 37.4961 5.83794 38.487 5.83794H55.4205C56.4114 5.83794 57.2175 5.05419 57.2175 4.0909C57.2175 3.12762 56.4114 2.34387 55.4205 2.34387H38.487C37.4961 2.34387 36.69 3.12762 36.69 4.0909ZM59.1527 12.0197H42.2193C41.2285 12.0197 40.4223 12.8035 40.4223 13.7668C40.4223 14.7301 41.2285 15.5138 42.2193 15.5138H50.6309C52.7592 13.4395 55.7008 12.1542 58.9455 12.1542C59.2794 12.1542 59.6099 12.1686 59.9369 12.1953C59.6977 12.0826 59.4311 12.0197 59.1527 12.0197ZM49.4499 16.8577H42.2193C41.2284 16.8577 40.4223 17.6414 40.4223 18.6047C40.4223 19.5681 41.2284 20.3517 42.2193 20.3517H47.6734C48.0586 19.0814 48.6653 17.9027 49.4499 16.8577ZM47.356 21.6956H42.2193C41.2284 21.6956 40.4223 22.4793 40.4223 23.4426C40.4223 24.406 41.2284 25.1897 42.2193 25.1897H47.3134C47.2364 24.6627 47.1957 24.1245 47.1957 23.5771C47.1957 22.9363 47.2512 22.3079 47.356 21.6956ZM40.4223 28.2806C40.4223 29.2439 41.2284 30.0276 42.2193 30.0276H49.2539C48.5109 28.9758 47.9443 27.7977 47.5956 26.5335H42.2193C41.2284 26.5335 40.4223 27.3172 40.4223 28.2806ZM48.578 23.5771C48.578 29.1347 53.2289 33.6561 58.9455 33.6561C64.662 33.6561 69.3129 29.1347 69.3129 23.5771C69.3129 18.0195 64.662 13.4981 58.9455 13.4981C53.2289 13.4981 48.578 18.0195 48.578 23.5771ZM57.1824 21.2802C57.1824 22.0967 57.9718 22.7609 58.9421 22.7609C60.7945 22.7609 62.3016 24.1228 62.3016 25.7969C62.3016 27.2219 61.2094 28.42 59.742 28.7452V29.0811C59.742 29.5105 59.3838 29.8588 58.9421 29.8588C58.5005 29.8588 58.1423 29.5105 58.1423 29.0811V28.7452C56.6748 28.42 55.5827 27.2219 55.5827 25.7969C55.5827 25.3675 55.9409 25.0193 56.3826 25.0193C56.8243 25.0193 57.1824 25.3675 57.1824 25.7969C57.1824 26.6134 57.9718 27.2776 58.9421 27.2776C59.9125 27.2776 60.7018 26.6134 60.7018 25.7969C60.7018 24.9804 59.9125 24.3161 58.9421 24.3161C57.0897 24.3161 55.5827 22.9542 55.5827 21.2802C55.5827 19.8553 56.6748 18.6571 58.1423 18.3319V17.9275C58.1423 17.4981 58.5005 17.1499 58.9421 17.1499C59.3838 17.1499 59.742 17.4981 59.742 17.9275V18.3319C61.2094 18.6571 62.3016 19.8553 62.3016 21.2802C62.3016 21.7096 61.9434 22.0579 61.5017 22.0579C61.06 22.0579 60.7018 21.7096 60.7018 21.2802C60.7018 20.4637 59.9125 19.7995 58.9421 19.7995C57.9718 19.7995 57.1824 20.4637 57.1824 21.2802Z" fill="#FF872C"/>
<path d="M62.0839 12.5686L61.8543 12.6677L61.9022 12.7785L62.0188 12.8099L62.0839 12.5686ZM61.7768 12.0197V11.7697H61.2951L61.5724 12.1637L61.7768 12.0197ZM50.3646 31.3715L50.5448 31.1982L50.4711 31.1215H50.3646V31.3715ZM40.2436 25.8616L40.3966 26.0594L40.6522 25.8616L40.3966 25.6639L40.2436 25.8616ZM40.2436 21.0237L40.3966 21.2214L40.6522 21.0237L40.3966 20.8259L40.2436 21.0237ZM40.2436 16.1857L40.3966 16.3835L40.6522 16.1857L40.3966 15.988L40.2436 16.1857ZM44.0218 10.6759V10.9259H44.505L44.2259 10.5315L44.0218 10.6759ZM44.0218 7.18181L44.2259 7.32619L44.5049 6.93181H44.0218V7.18181ZM58.0413 5.83794L57.8373 5.69355L57.5582 6.08794H58.0413V5.83794ZM50.6309 15.5138V15.7638H50.7325L50.8053 15.6928L50.6309 15.5138ZM59.9369 12.1953L59.9165 12.4444L60.0434 11.9691L59.9369 12.1953ZM49.4499 16.8577L49.6498 17.0078L49.9502 16.6077H49.4499V16.8577ZM47.6734 20.3517V20.6017H47.8588L47.9126 20.4243L47.6734 20.3517ZM47.356 21.6956L47.6024 21.7378L47.6524 21.4456H47.356V21.6956ZM47.3134 25.1897V25.4397H47.6025L47.5607 25.1536L47.3134 25.1897ZM49.2539 30.0276V30.2776H49.7365L49.4581 29.8834L49.2539 30.0276ZM47.5956 26.5335L47.8366 26.4671L47.7859 26.2835H47.5956V26.5335ZM59.742 28.7452L59.6879 28.5011L59.492 28.5445V28.7452H59.742ZM58.1423 28.7452H58.3923V28.5445L58.1964 28.5011L58.1423 28.7452ZM58.1423 18.3319L58.1964 18.576L58.3923 18.5326V18.3319H58.1423ZM59.742 18.3319H59.492V18.5326L59.6879 18.576L59.742 18.3319ZM62.3134 12.4695C62.2225 12.2589 62.111 12.0602 61.9812 11.8758L61.5724 12.1637C61.6824 12.3199 61.777 12.4886 61.8543 12.6677L62.3134 12.4695ZM70.9452 23.5771C70.9452 18.2145 67.2107 13.6928 62.149 12.3272L62.0188 12.8099C66.8768 14.1206 70.4452 18.4552 70.4452 23.5771H70.9452ZM58.9455 35.25C65.5556 35.25 70.9452 30.0204 70.9452 23.5771H70.4452C70.4452 29.731 65.2929 34.75 58.9455 34.75V35.25ZM50.1844 31.5448C52.376 33.8237 55.4931 35.25 58.9455 35.25V34.75C55.6329 34.75 52.6448 33.3819 50.5448 31.1982L50.1844 31.5448ZM42.2193 31.6215H50.3646V31.1215H42.2193V31.6215ZM38.79 28.2806C38.79 30.1295 40.3349 31.6215 42.2193 31.6215V31.1215C40.5976 31.1215 39.29 29.8402 39.29 28.2806H38.79ZM40.0907 25.6639C39.301 26.2746 38.79 27.2192 38.79 28.2806H39.29C39.29 27.3844 39.7208 26.582 40.3966 26.0594L40.0907 25.6639ZM38.79 23.4426C38.79 24.5041 39.301 25.4486 40.0907 26.0594L40.3966 25.6639C39.7208 25.1412 39.29 24.3388 39.29 23.4426H38.79ZM40.0907 20.8259C39.301 21.4367 38.79 22.3812 38.79 23.4426H39.29C39.29 22.5465 39.7208 21.7441 40.3966 21.2214L40.0907 20.8259ZM38.79 18.6047C38.79 19.6661 39.301 20.6107 40.0907 21.2214L40.3966 20.8259C39.7208 20.3033 39.29 19.5009 39.29 18.6047H38.79ZM40.0907 15.988C39.301 16.5987 38.79 17.5433 38.79 18.6047H39.29C39.29 17.7085 39.7208 16.9062 40.3966 16.3835L40.0907 15.988ZM38.79 13.7668C38.79 14.8282 39.301 15.7727 40.0907 16.3835L40.3966 15.988C39.7208 15.4653 39.29 14.663 39.29 13.7668H38.79ZM42.2193 10.4259C40.3349 10.4259 38.79 11.9178 38.79 13.7668H39.29C39.29 12.2071 40.5976 10.9259 42.2193 10.9259V10.4259ZM44.0218 10.4259H42.2193V10.9259H44.0218V10.4259ZM43.2134 8.92884C43.2134 9.63092 43.4374 10.2827 43.8178 10.8203L44.2259 10.5315C43.9024 10.0743 43.7134 9.52265 43.7134 8.92884H43.2134ZM43.8178 7.03742C43.4375 7.57498 43.2134 8.22674 43.2134 8.92884H43.7134C43.7134 8.33504 43.9025 7.78337 44.2259 7.32619L43.8178 7.03742ZM38.487 7.43181H44.0218V6.93181H38.487V7.43181ZM35.0577 4.0909C35.0577 5.93987 36.6026 7.43181 38.487 7.43181V6.93181C36.8653 6.93181 35.5577 5.65053 35.5577 4.0909H35.0577ZM38.487 0.75C36.6026 0.75 35.0577 2.24193 35.0577 4.0909H35.5577C35.5577 2.53128 36.8653 1.25 38.487 1.25V0.75ZM55.4205 0.75H38.487V1.25H55.4205V0.75ZM58.8498 4.0909C58.8498 2.24193 57.3049 0.75 55.4205 0.75V1.25C57.0421 1.25 58.3498 2.53128 58.3498 4.0909H58.8498ZM58.2454 5.98232C58.6257 5.44476 58.8498 4.793 58.8498 4.0909H58.3498C58.3498 4.6847 58.1607 5.23637 57.8373 5.69355L58.2454 5.98232ZM63.5762 5.58794H58.0413V6.08794H63.5762V5.58794ZM67.0055 8.92884C67.0055 7.07987 65.4606 5.58794 63.5762 5.58794V6.08794C65.1978 6.08794 66.5055 7.36921 66.5055 8.92884H67.0055ZM63.5762 12.2697C65.4606 12.2697 67.0055 10.7778 67.0055 8.92884H66.5055C66.5055 10.4885 65.1978 11.7697 63.5762 11.7697V12.2697ZM61.7768 12.2697H63.5762V11.7697H61.7768V12.2697ZM63.5762 7.43181C64.4357 7.43181 65.1232 8.11022 65.1232 8.92884H65.6232C65.6232 7.82089 64.6985 6.93181 63.5762 6.93181V7.43181ZM46.6427 7.43181H63.5762V6.93181H46.6427V7.43181ZM45.0957 8.92884C45.0957 8.11022 45.7832 7.43181 46.6427 7.43181V6.93181C45.5204 6.93181 44.5957 7.82089 44.5957 8.92884H45.0957ZM46.6427 10.4259C45.7832 10.4259 45.0957 9.74746 45.0957 8.92884H44.5957C44.5957 10.0368 45.5204 10.9259 46.6427 10.9259V10.4259ZM59.1527 10.4259H46.6427V10.9259H59.1527V10.4259ZM63.5762 10.4259H59.1527V10.9259H63.5762V10.4259ZM65.1232 8.92884C65.1232 9.74746 64.4357 10.4259 63.5762 10.4259V10.9259C64.6985 10.9259 65.6232 10.0368 65.6232 8.92884H65.1232ZM38.487 5.58794C37.6275 5.58794 36.94 4.90952 36.94 4.0909H36.44C36.44 5.19886 37.3647 6.08794 38.487 6.08794V5.58794ZM55.4205 5.58794H38.487V6.08794H55.4205V5.58794ZM56.9675 4.0909C56.9675 4.90952 56.28 5.58794 55.4205 5.58794V6.08794C56.5428 6.08794 57.4675 5.19886 57.4675 4.0909H56.9675ZM55.4205 2.59387C56.28 2.59387 56.9675 3.27228 56.9675 4.0909H57.4675C57.4675 2.98295 56.5428 2.09387 55.4205 2.09387V2.59387ZM38.487 2.59387H55.4205V2.09387H38.487V2.59387ZM36.94 4.0909C36.94 3.27228 37.6275 2.59387 38.487 2.59387V2.09387C37.3647 2.09387 36.44 2.98295 36.44 4.0909H36.94ZM42.2193 12.2697H59.1527V11.7697H42.2193V12.2697ZM40.6723 13.7668C40.6723 12.9482 41.3598 12.2697 42.2193 12.2697V11.7697C41.0971 11.7697 40.1723 12.6588 40.1723 13.7668H40.6723ZM42.2193 15.2638C41.3598 15.2638 40.6723 14.5854 40.6723 13.7668H40.1723C40.1723 14.8747 41.0971 15.7638 42.2193 15.7638V15.2638ZM50.6309 15.2638H42.2193V15.7638H50.6309V15.2638ZM58.9455 11.9042C55.6338 11.9042 52.6301 13.2163 50.4564 15.3348L50.8053 15.6928C52.8883 13.6628 55.7678 12.4042 58.9455 12.4042V11.9042ZM59.9572 11.9461C59.6239 11.9189 59.2866 11.9042 58.9455 11.9042V12.4042C59.2722 12.4042 59.596 12.4183 59.9165 12.4444L59.9572 11.9461ZM59.1527 12.2697C59.3933 12.2697 59.6236 12.3241 59.8303 12.4214L60.0434 11.9691C59.7719 11.8412 59.469 11.7697 59.1527 11.7697V12.2697ZM42.2193 17.1077H49.4499V16.6077H42.2193V17.1077ZM40.6723 18.6047C40.6723 17.7861 41.3598 17.1077 42.2193 17.1077V16.6077C41.097 16.6077 40.1723 17.4968 40.1723 18.6047H40.6723ZM42.2193 20.1017C41.3598 20.1017 40.6723 19.4234 40.6723 18.6047H40.1723C40.1723 19.7127 41.097 20.6017 42.2193 20.6017V20.1017ZM47.6734 20.1017H42.2193V20.6017H47.6734V20.1017ZM49.2499 16.7076C48.4483 17.7753 47.8281 18.9802 47.4341 20.2792L47.9126 20.4243C48.2892 19.1827 48.8822 18.0301 49.6498 17.0078L49.2499 16.7076ZM42.2193 21.9456H47.356V21.4456H42.2193V21.9456ZM40.6723 23.4426C40.6723 22.624 41.3598 21.9456 42.2193 21.9456V21.4456C41.097 21.4456 40.1723 22.3346 40.1723 23.4426H40.6723ZM42.2193 24.9397C41.3598 24.9397 40.6723 24.2613 40.6723 23.4426H40.1723C40.1723 24.5507 41.097 25.4397 42.2193 25.4397V24.9397ZM47.3134 24.9397H42.2193V25.4397H47.3134V24.9397ZM46.9457 23.5771C46.9457 24.1369 46.9874 24.6872 47.066 25.2258L47.5607 25.1536C47.4855 24.6382 47.4457 24.112 47.4457 23.5771H46.9457ZM47.1096 21.6534C47.0024 22.2794 46.9457 22.9218 46.9457 23.5771H47.4457C47.4457 22.9507 47.4999 22.3365 47.6024 21.7378L47.1096 21.6534ZM42.2193 29.7776C41.3598 29.7776 40.6723 29.0993 40.6723 28.2806H40.1723C40.1723 29.3886 41.097 30.2776 42.2193 30.2776V29.7776ZM49.2539 29.7776H42.2193V30.2776H49.2539V29.7776ZM47.3546 26.6C47.7112 27.8927 48.2905 29.0971 49.0497 30.1718L49.4581 29.8834C48.7313 28.8545 48.1774 27.7026 47.8366 26.4671L47.3546 26.6ZM42.2193 26.7835H47.5956V26.2835H42.2193V26.7835ZM40.6723 28.2806C40.6723 27.4619 41.3598 26.7835 42.2193 26.7835V26.2835C41.097 26.2835 40.1723 27.1726 40.1723 28.2806H40.6723ZM58.9455 33.4061C53.3602 33.4061 48.828 28.99 48.828 23.5771H48.328C48.328 29.2794 53.0975 33.9061 58.9455 33.9061V33.4061ZM69.0629 23.5771C69.0629 28.99 64.5307 33.4061 58.9455 33.4061V33.9061C64.7934 33.9061 69.5629 29.2794 69.5629 23.5771H69.0629ZM58.9455 13.7481C64.5307 13.7481 69.0629 18.1642 69.0629 23.5771H69.5629C69.5629 17.8748 64.7934 13.2481 58.9455 13.2481V13.7481ZM48.828 23.5771C48.828 18.1642 53.3602 13.7481 58.9455 13.7481V13.2481C53.0975 13.2481 48.328 17.8748 48.328 23.5771H48.828ZM58.9421 22.5109C58.0677 22.5109 57.4324 21.9199 57.4324 21.2802H56.9324C56.9324 22.2734 57.8759 23.0109 58.9421 23.0109V22.5109ZM62.5516 25.7969C62.5516 23.9615 60.9082 22.5109 58.9421 22.5109V23.0109C60.6809 23.0109 62.0516 24.2841 62.0516 25.7969H62.5516ZM59.7961 28.9893C61.3584 28.6431 62.5516 27.358 62.5516 25.7969H62.0516C62.0516 27.0857 61.0605 28.197 59.6879 28.5011L59.7961 28.9893ZM59.992 29.0811V28.7452H59.492V29.0811H59.992ZM58.9421 30.1088C59.5152 30.1088 59.992 29.6552 59.992 29.0811H59.492C59.492 29.3659 59.2524 29.6088 58.9421 29.6088V30.1088ZM57.8923 29.0811C57.8923 29.6552 58.3691 30.1088 58.9421 30.1088V29.6088C58.6318 29.6088 58.3923 29.3659 58.3923 29.0811H57.8923ZM57.8923 28.7452V29.0811H58.3923V28.7452H57.8923ZM55.3327 25.7969C55.3327 27.358 56.5259 28.6431 58.0882 28.9893L58.1964 28.5011C56.8238 28.197 55.8327 27.0857 55.8327 25.7969H55.3327ZM56.3826 24.7693C55.8095 24.7693 55.3327 25.2228 55.3327 25.7969H55.8327C55.8327 25.5121 56.0723 25.2693 56.3826 25.2693V24.7693ZM57.4324 25.7969C57.4324 25.2228 56.9556 24.7693 56.3826 24.7693V25.2693C56.6929 25.2693 56.9324 25.5121 56.9324 25.7969H57.4324ZM58.9421 27.0276C58.0677 27.0276 57.4324 26.4366 57.4324 25.7969H56.9324C56.9324 26.7901 57.8759 27.5276 58.9421 27.5276V27.0276ZM60.4518 25.7969C60.4518 26.4366 59.8166 27.0276 58.9421 27.0276V27.5276C60.0084 27.5276 60.9518 26.7901 60.9518 25.7969H60.4518ZM58.9421 24.5661C59.8166 24.5661 60.4518 25.1571 60.4518 25.7969H60.9518C60.9518 24.8036 60.0084 24.0661 58.9421 24.0661V24.5661ZM55.3327 21.2802C55.3327 23.1155 56.9761 24.5661 58.9421 24.5661V24.0661C57.2034 24.0661 55.8327 22.7929 55.8327 21.2802H55.3327ZM58.0882 18.0878C56.5259 18.4341 55.3327 19.7191 55.3327 21.2802H55.8327C55.8327 19.9915 56.8238 18.8802 58.1964 18.576L58.0882 18.0878ZM57.8923 17.9275V18.3319H58.3923V17.9275H57.8923ZM58.9421 16.8999C58.3691 16.8999 57.8923 17.3534 57.8923 17.9275H58.3923C58.3923 17.6427 58.6318 17.3999 58.9421 17.3999V16.8999ZM59.992 17.9275C59.992 17.3534 59.5152 16.8999 58.9421 16.8999V17.3999C59.2524 17.3999 59.492 17.6427 59.492 17.9275H59.992ZM59.992 18.3319V17.9275H59.492V18.3319H59.992ZM62.5516 21.2802C62.5516 19.7191 61.3584 18.4341 59.7961 18.0878L59.6879 18.576C61.0605 18.8802 62.0516 19.9915 62.0516 21.2802H62.5516ZM61.5017 22.3079C62.0748 22.3079 62.5516 21.8543 62.5516 21.2802H62.0516C62.0516 21.565 61.812 21.8079 61.5017 21.8079V22.3079ZM60.4518 21.2802C60.4518 21.8543 60.9286 22.3079 61.5017 22.3079V21.8079C61.1914 21.8079 60.9518 21.565 60.9518 21.2802H60.4518ZM58.9421 20.0495C59.8166 20.0495 60.4518 20.6405 60.4518 21.2802H60.9518C60.9518 20.287 60.0084 19.5495 58.9421 19.5495V20.0495ZM57.4324 21.2802C57.4324 20.6405 58.0677 20.0495 58.9421 20.0495V19.5495C57.8759 19.5495 56.9324 20.287 56.9324 21.2802H57.4324Z" fill="#FF872C"/>
<path d="M23.1032 63.3937H25.5729V53.8837H27.7634V51.9526H25.5729V51.1428C25.5729 49.8346 26.0883 49.3363 27.5916 49.3363V47.3637C24.4991 47.3637 23.1032 48.5057 23.1032 51.1428V51.9526H21.7073V53.8837H23.1032V63.3937Z" fill="white"/>
<path d="M29.933 63.3937H32.3812V51.9526H29.933V63.3937ZM31.1786 50.4368C32.0376 50.4368 32.7248 49.7723 32.7248 48.921C32.7248 48.0697 32.0376 47.4052 31.1786 47.4052C30.2981 47.4052 29.6109 48.0697 29.6109 48.921C29.6109 49.7723 30.2981 50.4368 31.1786 50.4368Z" fill="white"/>
<path d="M43.9923 63.3937H46.419V56.6453C46.419 53.4476 44.3359 51.7657 41.5656 51.7657C40.1482 51.7657 38.8382 52.3263 38.0436 53.2607V51.9526H35.5955V63.3937H38.0436V56.9983C38.0436 54.9011 39.2248 53.8214 41.0287 53.8214C42.8111 53.8214 43.9923 54.9011 43.9923 56.9983V63.3937Z" fill="white"/>
<path d="M48.7257 57.6212C48.7257 61.1511 51.1954 63.5806 54.2663 63.5806C56.2421 63.5806 57.6594 62.6669 58.4111 61.691V63.3937H60.8807V51.9526H58.4111V53.6137C57.6809 52.6793 56.3065 51.7657 54.3093 51.7657C51.1954 51.7657 48.7257 54.0913 48.7257 57.6212ZM58.4111 57.6628C58.4111 60.1337 56.6716 61.5249 54.8247 61.5249C52.9993 61.5249 51.2383 60.0922 51.2383 57.6212C51.2383 55.1503 52.9993 53.8214 54.8247 53.8214C56.6716 53.8214 58.4111 55.2126 58.4111 57.6628Z" fill="white"/>
<path d="M72.4931 63.3937H74.9198V56.6453C74.9198 53.4476 72.8367 51.7657 70.0664 51.7657C68.6491 51.7657 67.3391 52.3263 66.5445 53.2607V51.9526H64.0963V63.3937H66.5445V56.9983C66.5445 54.9011 67.7256 53.8214 69.5296 53.8214C71.312 53.8214 72.4931 54.9011 72.4931 56.9983V63.3937Z" fill="white"/>
<path d="M77.2266 57.6628C77.2266 61.255 79.6318 63.5806 83.0249 63.5806C85.9241 63.5806 87.8139 62.0232 88.4796 59.7807H85.8382C85.3872 60.9643 84.4852 61.5872 83.0249 61.5872C81.0492 61.5872 79.7392 60.1752 79.7392 57.6628C79.7392 55.171 81.0492 53.7591 83.0249 53.7591C84.4852 53.7591 85.4301 54.4651 85.8382 55.5656H88.4796C87.8139 53.1569 85.9241 51.7657 83.0249 51.7657C79.6318 51.7657 77.2266 54.0913 77.2266 57.6628Z" fill="white"/>
<path d="M95.9017 53.7591C97.7271 53.7591 99.1659 54.8803 99.2089 56.6453H92.6589C92.9166 54.8388 94.2481 53.7591 95.9017 53.7591ZM101.442 59.9883H98.8008C98.3499 60.8812 97.5123 61.5872 96.009 61.5872C94.2051 61.5872 92.8092 60.4452 92.6374 58.5556H101.679C101.743 58.1611 101.764 57.7873 101.764 57.3928C101.764 54.029 99.3807 51.7657 96.009 51.7657C92.5086 51.7657 90.1034 54.0705 90.1034 57.6628C90.1034 61.255 92.616 63.5806 96.009 63.5806C98.9082 63.5806 100.777 61.9817 101.442 59.9883Z" fill="white"/>
<path d="M113 60.196C112.871 56.0639 106.192 57.3513 106.192 55.0465C106.192 54.2782 106.88 53.7591 108.19 53.7591C109.521 53.7591 110.316 54.4443 110.401 55.441H112.85C112.721 53.1569 110.96 51.7657 108.275 51.7657C105.484 51.7657 103.723 53.24 103.723 55.0672C103.723 59.2616 110.595 57.9742 110.595 60.2168C110.595 61.0058 109.843 61.5872 108.426 61.5872C107.073 61.5872 106.149 60.8189 106.063 59.8845H103.529C103.637 61.961 105.634 63.5806 108.469 63.5806C111.261 63.5806 113 62.1271 113 60.196Z" fill="white"/>
<path d="M6.98395 53.924H4.73995V64H2.20995V53.924H0.779953V51.878H2.20995V51.02C2.20995 49.6267 2.57662 48.6147 3.30995 47.984C4.05795 47.3387 5.22395 47.016 6.80795 47.016V49.106C6.04529 49.106 5.50995 49.2527 5.20195 49.546C4.89395 49.8247 4.73995 50.316 4.73995 51.02V51.878H6.98395V53.924Z" fill="white"/>
<path d="M8.37064 57.928C8.37064 56.6813 8.61997 55.5887 9.11864 54.65C9.63197 53.6967 10.336 52.9633 11.2306 52.45C12.1253 51.9367 13.152 51.68 14.3106 51.68C15.7773 51.68 16.9873 52.032 17.9406 52.736C18.9086 53.4253 19.5613 54.4153 19.8986 55.706H17.1926C16.9726 55.1047 16.6206 54.6353 16.1366 54.298C15.6526 53.9607 15.044 53.792 14.3106 53.792C13.284 53.792 12.4626 54.1587 11.8466 54.892C11.2453 55.6107 10.9446 56.6227 10.9446 57.928C10.9446 59.2333 11.2453 60.2527 11.8466 60.986C12.4626 61.7193 13.284 62.086 14.3106 62.086C15.7626 62.086 16.7233 61.448 17.1926 60.172H19.8986C19.5466 61.404 18.8866 62.3867 17.9186 63.12C16.9506 63.8387 15.748 64.198 14.3106 64.198C13.152 64.198 12.1253 63.9413 11.2306 63.428C10.336 62.9 9.63197 62.1667 9.11864 61.228C8.61997 60.2747 8.37064 59.1747 8.37064 57.928Z" fill="white"/>
</svg>
